<svg width="310" height="214" viewBox="0 0 310 214" fill="none" xmlns="http://www.w3.org/2000/svg">
<path d="M81.8418 97.4272H222.838V178C222.838 186.837 215.675 194 206.838 194H97.8418C89.0052 194 81.8418 186.837 81.8418 178V97.4272Z" fill="#14DD94"/>
<path fill-rule="evenodd" clip-rule="evenodd" d="M222.838 93.2696V99.9813C222.838 108.818 215.675 115.981 206.838 115.981H97.8418C89.0052 115.981 81.8418 108.818 81.8418 99.9813V92.3429L143.541 33.0238C148.187 28.5578 155.53 28.5578 160.175 33.0238L222.838 93.2696Z" fill="#14DD94"/>
<rect x="95.3613" y="56.8667" width="115.887" height="116.853" rx="5" fill="#F9E428"/>
<g style="mix-blend-mode:multiply" opacity="0.08">
<path fill-rule="evenodd" clip-rule="evenodd" d="M105.714 193.937C97.5186 193.958 90.5198 187.715 89.7564 179.398L82.2318 97.4202C86.164 93.7877 92.4242 92.8086 97.4861 96.4877L146.044 131.781C151.908 136.043 152.683 144.49 147.693 149.748L106.371 193.291C106.157 193.517 105.938 193.732 105.714 193.937Z" fill="#111111"/>
</g>
<path fill-rule="evenodd" clip-rule="evenodd" d="M96.2322 193.919C88.1515 193.112 81.8418 186.293 81.8418 177.999V95.5324C86.0863 92.408 92.2912 92.0781 96.925 96.1426L142.054 135.726C147.503 140.506 147.503 148.989 142.054 153.769L96.9251 193.353C96.6977 193.552 96.4666 193.741 96.2322 193.919Z" fill="#14E298"/>
<g style="mix-blend-mode:multiply" opacity="0.08">
<path fill-rule="evenodd" clip-rule="evenodd" d="M198.72 193.937C206.915 193.958 213.914 187.715 214.677 179.398L222.202 97.4202C218.27 93.7877 212.009 92.8086 206.948 96.4877L158.39 131.781C152.526 136.043 151.751 144.49 156.74 149.748L198.062 193.291C198.277 193.517 198.496 193.732 198.72 193.937Z" fill="#111111"/>
</g>
<path fill-rule="evenodd" clip-rule="evenodd" d="M208.276 193.936C216.439 193.208 222.838 186.351 222.838 177.999V95.6769C218.59 92.419 212.267 92.0163 207.562 96.1426L162.433 135.726C156.984 140.506 156.984 148.989 162.433 153.769L207.562 193.353C207.796 193.558 208.035 193.752 208.276 193.936Z" fill="#14E298"/>
<path fill-rule="evenodd" clip-rule="evenodd" d="M222.838 175.905V178C222.838 186.837 215.675 194 206.838 194H97.8418C89.0052 194 81.8418 186.837 81.8418 178V174.885C82.131 174.613 82.438 174.349 82.7634 174.095L144.474 125.946C148.813 122.56 154.899 122.56 159.238 125.946L220.949 174.095C221.666 174.655 222.295 175.262 222.838 175.905Z" fill="#1EF2A6"/>
<path d="M135.924 94.0473L147.995 106.119L171.173 82.9414" stroke="white" stroke-width="7" stroke-linejoin="round"/>
<rect x="147.02" y="0.614746" width="7.98093" height="21.2825" rx="3.99046" fill="#14E298"/>
<rect x="178.943" y="7.26562" width="7.98093" height="21.2825" rx="3.99046" transform="rotate(30 178.943 7.26562)" fill="#14E298"/>
<rect x="203.465" y="24.5576" width="7.98093" height="21.2825" rx="3.99046" transform="rotate(57.1064 203.465 24.5576)" fill="#14E298"/>
<rect width="7.98093" height="21.2825" rx="3.99046" transform="matrix(-0.866025 0.5 0.5 0.866025 122.668 7.26562)" fill="#14E298"/>
<rect width="7.98093" height="21.2825" rx="3.99046" transform="matrix(-0.54308 0.839681 0.839681 0.54308 98.1484 24.5576)" fill="#14E298"/>
<path opacity="0.5" fill-rule="evenodd" clip-rule="evenodd" d="M33.5257 112.777C39.1423 113.21 43.2652 114.64 43.2652 116.338C43.2652 118.036 39.1423 119.466 33.5257 119.899C33.0933 125.516 31.6628 129.64 29.9647 129.64C28.2667 129.64 26.8362 125.516 26.4037 119.899C20.7861 119.467 16.6621 118.036 16.6621 116.338C16.6621 114.64 20.7861 113.209 26.4038 112.777C26.8363 107.16 28.2667 103.037 29.9647 103.037C31.6627 103.037 33.0932 107.16 33.5257 112.777Z" fill="#F9E428"/>
<path opacity="0.5" fill-rule="evenodd" clip-rule="evenodd" d="M259.204 54.7007C262.013 54.9169 264.075 55.6322 264.075 56.4813C264.075 57.3303 262.013 58.0456 259.204 58.2618C258.988 61.0704 258.273 63.1321 257.424 63.1321C256.575 63.1321 255.859 61.0703 255.643 58.2617C252.835 58.0454 250.773 57.3302 250.773 56.4813C250.773 55.6323 252.835 54.9171 255.643 54.7008C255.859 51.8923 256.575 49.8306 257.424 49.8306C258.273 49.8306 258.988 51.8922 259.204 54.7007Z" fill="#F9E428"/>
<circle opacity="0.5" cx="39.3649" cy="53.7374" r="12.9899" stroke="#3FEFAC" stroke-width="4" stroke-dasharray="4 6"/>
<circle opacity="0.5" cx="300.5" cy="72.5" r="7.5" stroke="#3FEFAC" stroke-width="4" stroke-dasharray="4 6"/>
<path opacity="0.5" d="M282.556 115.303C282.556 122.114 276.809 127.758 269.566 127.758C262.323 127.758 256.576 122.114 256.576 115.303C256.576 108.493 262.323 102.849 269.566 102.849C276.809 102.849 282.556 108.493 282.556 115.303Z" stroke="#FF79AD" stroke-width="4"/>
<circle opacity="0.5" cx="3.74747" cy="78.8988" r="2" stroke="#FF79AD" stroke-width="3.49494"/>
<rect x="30" y="194" width="250" height="20" fill="url(#paint0_radial)"/>
<defs>
<radialGradient id="paint0_radial" cx="0" cy="0" r="1" gradientUnits="userSpaceOnUse" gradientTransform="translate(155 194) rotate(90) scale(10 125)">
<stop stop-color="#B4DECF"/>
<stop offset="1" stop-color="white" stop-opacity="0"/>
</radialGradient>
</defs>
</svg>
